<svg xmlns="http://www.w3.org/2000/svg" xmlns:xlink="http://www.w3.org/1999/xlink" width="70" zoomAndPan="magnify" viewBox="0 0 52.5 52.499999" height="70" preserveAspectRatio="xMidYMid meet" version="1.0"><defs><g/><clipPath id="9591fe623a"><path d="M 7.421875 10.058594 L 44.570312 10.058594 L 44.570312 33 L 7.421875 33 Z M 7.421875 10.058594 " clip-rule="nonzero"/></clipPath></defs><g clip-path="url(#9591fe623a)"><path fill="#ffffff" d="M 13.328125 29.535156 L 15.296875 32.945312 L 7.421875 32.945312 L 9.394531 29.535156 L 11.363281 26.128906 Z M 31.519531 32.933594 L 26.402344 32.933594 L 17.691406 15.03125 L 20.441406 10.238281 Z M 31.539062 21.261719 L 31.539062 10.066406 L 26.386719 10.066406 Z M 42.609375 29.453125 L 40.640625 26.046875 L 38.667969 29.453125 L 36.707031 32.859375 L 44.582031 32.859375 Z M 42.609375 29.453125 " fill-opacity="1" fill-rule="nonzero"/></g><g fill="#ffffff" fill-opacity="1"><g transform="translate(7.862272, 41.066903)"><g><path d="M 2.21875 0 L 2 -0.71875 L 0.90625 -0.71875 L 0.6875 0 L 0 0 L 1.0625 -3.015625 L 1.84375 -3.015625 L 2.90625 0 Z M 1.84375 -1.25 C 1.644531 -1.894531 1.53125 -2.257812 1.5 -2.34375 C 1.476562 -2.425781 1.460938 -2.492188 1.453125 -2.546875 C 1.410156 -2.367188 1.28125 -1.9375 1.0625 -1.25 Z M 1.84375 -1.25 "/></g></g></g><g fill="#ffffff" fill-opacity="1"><g transform="translate(10.766547, 41.066903)"><g><path d="M 2.453125 0 L 1.828125 0 L 1.828125 -1.34375 C 1.828125 -1.507812 1.796875 -1.632812 1.734375 -1.71875 C 1.671875 -1.800781 1.578125 -1.84375 1.453125 -1.84375 C 1.273438 -1.84375 1.144531 -1.78125 1.0625 -1.65625 C 0.988281 -1.539062 0.953125 -1.347656 0.953125 -1.078125 L 0.953125 0 L 0.328125 0 L 0.328125 -2.296875 L 0.8125 -2.296875 L 0.890625 -2 L 0.921875 -2 C 0.992188 -2.113281 1.085938 -2.195312 1.203125 -2.25 C 1.328125 -2.3125 1.46875 -2.34375 1.625 -2.34375 C 1.894531 -2.34375 2.097656 -2.269531 2.234375 -2.125 C 2.378906 -1.976562 2.453125 -1.769531 2.453125 -1.5 Z M 2.453125 0 "/></g></g></g><g fill="#ffffff" fill-opacity="1"><g transform="translate(13.533112, 41.066903)"><g><path d="M 2.328125 -2.296875 L 2.328125 -1.96875 L 1.96875 -1.890625 C 2.03125 -1.785156 2.0625 -1.671875 2.0625 -1.546875 C 2.0625 -1.296875 1.972656 -1.097656 1.796875 -0.953125 C 1.628906 -0.816406 1.394531 -0.75 1.09375 -0.75 L 0.984375 -0.765625 L 0.890625 -0.78125 C 0.828125 -0.726562 0.796875 -0.671875 0.796875 -0.609375 C 0.796875 -0.515625 0.910156 -0.46875 1.140625 -0.46875 L 1.53125 -0.46875 C 1.78125 -0.46875 1.96875 -0.414062 2.09375 -0.3125 C 2.226562 -0.207031 2.296875 -0.046875 2.296875 0.171875 C 2.296875 0.429688 2.179688 0.632812 1.953125 0.78125 C 1.734375 0.9375 1.414062 1.015625 1 1.015625 C 0.675781 1.015625 0.429688 0.957031 0.265625 0.84375 C 0.0976562 0.726562 0.015625 0.570312 0.015625 0.375 C 0.015625 0.238281 0.0546875 0.125 0.140625 0.03125 C 0.222656 -0.0625 0.347656 -0.128906 0.515625 -0.171875 C 0.453125 -0.203125 0.394531 -0.25 0.34375 -0.3125 C 0.300781 -0.375 0.28125 -0.4375 0.28125 -0.5 C 0.28125 -0.59375 0.304688 -0.664062 0.359375 -0.71875 C 0.410156 -0.78125 0.484375 -0.835938 0.578125 -0.890625 C 0.453125 -0.941406 0.351562 -1.023438 0.28125 -1.140625 C 0.21875 -1.253906 0.1875 -1.390625 0.1875 -1.546875 C 0.1875 -1.796875 0.265625 -1.988281 0.421875 -2.125 C 0.585938 -2.269531 0.820312 -2.34375 1.125 -2.34375 C 1.1875 -2.34375 1.257812 -2.332031 1.34375 -2.3125 C 1.4375 -2.300781 1.5 -2.296875 1.53125 -2.296875 Z M 0.546875 0.328125 C 0.546875 0.410156 0.585938 0.472656 0.671875 0.515625 C 0.753906 0.566406 0.875 0.59375 1.03125 0.59375 C 1.25 0.59375 1.421875 0.5625 1.546875 0.5 C 1.679688 0.445312 1.75 0.363281 1.75 0.25 C 1.75 0.164062 1.707031 0.109375 1.625 0.078125 C 1.550781 0.046875 1.4375 0.03125 1.28125 0.03125 L 0.953125 0.03125 C 0.835938 0.03125 0.738281 0.0546875 0.65625 0.109375 C 0.582031 0.160156 0.546875 0.234375 0.546875 0.328125 Z M 0.78125 -1.546875 C 0.78125 -1.421875 0.804688 -1.320312 0.859375 -1.25 C 0.921875 -1.175781 1.007812 -1.140625 1.125 -1.140625 C 1.238281 -1.140625 1.320312 -1.175781 1.375 -1.25 C 1.4375 -1.320312 1.46875 -1.421875 1.46875 -1.546875 C 1.46875 -1.816406 1.351562 -1.953125 1.125 -1.953125 C 0.894531 -1.953125 0.78125 -1.816406 0.78125 -1.546875 Z M 0.78125 -1.546875 "/></g></g></g><g fill="#ffffff" fill-opacity="1"><g transform="translate(15.911206, 41.066903)"><g><path d="M 1.28125 -1.890625 C 1.144531 -1.890625 1.039062 -1.847656 0.96875 -1.765625 C 0.894531 -1.679688 0.851562 -1.5625 0.84375 -1.40625 L 1.71875 -1.40625 C 1.71875 -1.5625 1.675781 -1.679688 1.59375 -1.765625 C 1.519531 -1.847656 1.414062 -1.890625 1.28125 -1.890625 Z M 1.359375 0.046875 C 0.992188 0.046875 0.707031 -0.0546875 0.5 -0.265625 C 0.289062 -0.472656 0.1875 -0.757812 0.1875 -1.125 C 0.1875 -1.507812 0.28125 -1.804688 0.46875 -2.015625 C 0.664062 -2.234375 0.9375 -2.34375 1.28125 -2.34375 C 1.601562 -2.34375 1.851562 -2.25 2.03125 -2.0625 C 2.207031 -1.875 2.296875 -1.617188 2.296875 -1.296875 L 2.296875 -0.984375 L 0.828125 -0.984375 C 0.828125 -0.804688 0.875 -0.664062 0.96875 -0.5625 C 1.070312 -0.46875 1.210938 -0.421875 1.390625 -0.421875 C 1.535156 -0.421875 1.664062 -0.4375 1.78125 -0.46875 C 1.90625 -0.5 2.035156 -0.546875 2.171875 -0.609375 L 2.171875 -0.125 C 2.066406 -0.0625 1.953125 -0.0195312 1.828125 0 C 1.703125 0.03125 1.546875 0.046875 1.359375 0.046875 Z M 1.359375 0.046875 "/></g></g></g><g fill="#ffffff" fill-opacity="1"><g transform="translate(18.398236, 41.066903)"><g><path d="M 0.953125 0 L 0.328125 0 L 0.328125 -3.1875 L 0.953125 -3.1875 Z M 0.953125 0 "/></g></g></g><g fill="#ffffff" fill-opacity="1"><g transform="translate(19.682859, 41.066903)"><g><path d="M 1.78125 0 L 1.671875 -0.3125 L 1.640625 -0.3125 C 1.535156 -0.175781 1.425781 -0.0820312 1.3125 -0.03125 C 1.207031 0.0195312 1.066406 0.046875 0.890625 0.046875 C 0.671875 0.046875 0.492188 -0.015625 0.359375 -0.140625 C 0.234375 -0.273438 0.171875 -0.457031 0.171875 -0.6875 C 0.171875 -0.925781 0.253906 -1.101562 0.421875 -1.21875 C 0.597656 -1.332031 0.859375 -1.398438 1.203125 -1.421875 L 1.59375 -1.421875 L 1.59375 -1.53125 C 1.59375 -1.757812 1.476562 -1.875 1.25 -1.875 C 1.0625 -1.875 0.84375 -1.820312 0.59375 -1.71875 L 0.390625 -2.140625 C 0.648438 -2.273438 0.941406 -2.34375 1.265625 -2.34375 C 1.578125 -2.34375 1.8125 -2.273438 1.96875 -2.140625 C 2.132812 -2.003906 2.21875 -1.800781 2.21875 -1.53125 L 2.21875 0 Z M 1.59375 -1.0625 L 1.359375 -1.0625 C 1.171875 -1.050781 1.03125 -1.015625 0.9375 -0.953125 C 0.851562 -0.890625 0.8125 -0.800781 0.8125 -0.6875 C 0.8125 -0.507812 0.914062 -0.421875 1.125 -0.421875 C 1.269531 -0.421875 1.382812 -0.460938 1.46875 -0.546875 C 1.550781 -0.628906 1.59375 -0.738281 1.59375 -0.875 Z M 1.59375 -1.0625 "/></g></g></g><g fill="#ffffff" fill-opacity="1"><g transform="translate(22.225385, 41.066903)"><g/></g></g><g fill="#ffffff" fill-opacity="1"><g transform="translate(23.318857, 41.066903)"><g><path d="M 0.375 0 L 0.375 -3 L 1.015625 -3 L 1.015625 -0.53125 L 2.234375 -0.53125 L 2.234375 0 Z M 0.375 0 "/></g></g></g><g fill="#ffffff" fill-opacity="1"><g transform="translate(25.696951, 41.066903)"><g><path d="M 0.296875 -2.890625 C 0.296875 -3.085938 0.410156 -3.1875 0.640625 -3.1875 C 0.867188 -3.1875 0.984375 -3.085938 0.984375 -2.890625 C 0.984375 -2.785156 0.953125 -2.707031 0.890625 -2.65625 C 0.835938 -2.601562 0.753906 -2.578125 0.640625 -2.578125 C 0.410156 -2.578125 0.296875 -2.679688 0.296875 -2.890625 Z M 0.953125 0 L 0.328125 0 L 0.328125 -2.296875 L 0.953125 -2.296875 Z M 0.953125 0 "/></g></g></g><g fill="#ffffff" fill-opacity="1"><g transform="translate(26.981574, 41.066903)"><g><path d="M 2.375 0 L 1.75 0 L 1.75 -1.34375 C 1.75 -1.507812 1.722656 -1.632812 1.671875 -1.71875 C 1.617188 -1.800781 1.53125 -1.84375 1.40625 -1.84375 C 1.25 -1.84375 1.132812 -1.78125 1.0625 -1.65625 C 0.988281 -1.539062 0.953125 -1.347656 0.953125 -1.078125 L 0.953125 0 L 0.328125 0 L 0.328125 -2.296875 L 0.8125 -2.296875 L 0.890625 -2 L 0.921875 -2 C 0.984375 -2.101562 1.070312 -2.1875 1.1875 -2.25 C 1.300781 -2.3125 1.4375 -2.34375 1.59375 -2.34375 C 1.9375 -2.34375 2.171875 -2.226562 2.296875 -2 L 2.34375 -2 C 2.40625 -2.101562 2.492188 -2.1875 2.609375 -2.25 C 2.734375 -2.3125 2.867188 -2.34375 3.015625 -2.34375 C 3.273438 -2.34375 3.472656 -2.273438 3.609375 -2.140625 C 3.742188 -2.003906 3.8125 -1.789062 3.8125 -1.5 L 3.8125 0 L 3.1875 0 L 3.1875 -1.34375 C 3.1875 -1.507812 3.15625 -1.632812 3.09375 -1.71875 C 3.039062 -1.800781 2.957031 -1.84375 2.84375 -1.84375 C 2.6875 -1.84375 2.566406 -1.785156 2.484375 -1.671875 C 2.410156 -1.566406 2.375 -1.394531 2.375 -1.15625 Z M 2.375 0 "/></g></g></g><g fill="#ffffff" fill-opacity="1"><g transform="translate(31.114977, 41.066903)"><g><path d="M 0.953125 0 L 0.328125 0 L 0.328125 -3.1875 L 0.953125 -3.1875 Z M 0.953125 0 "/></g></g></g><g fill="#ffffff" fill-opacity="1"><g transform="translate(32.3996, 41.066903)"><g><path d="M 0.296875 -2.890625 C 0.296875 -3.085938 0.410156 -3.1875 0.640625 -3.1875 C 0.867188 -3.1875 0.984375 -3.085938 0.984375 -2.890625 C 0.984375 -2.785156 0.953125 -2.707031 0.890625 -2.65625 C 0.835938 -2.601562 0.753906 -2.578125 0.640625 -2.578125 C 0.410156 -2.578125 0.296875 -2.679688 0.296875 -2.890625 Z M 0.953125 0 L 0.328125 0 L 0.328125 -2.296875 L 0.953125 -2.296875 Z M 0.953125 0 "/></g></g></g><g fill="#ffffff" fill-opacity="1"><g transform="translate(33.684223, 41.066903)"><g><path d="M 2.453125 0 L 1.828125 0 L 1.828125 -1.34375 C 1.828125 -1.507812 1.796875 -1.632812 1.734375 -1.71875 C 1.671875 -1.800781 1.578125 -1.84375 1.453125 -1.84375 C 1.273438 -1.84375 1.144531 -1.78125 1.0625 -1.65625 C 0.988281 -1.539062 0.953125 -1.347656 0.953125 -1.078125 L 0.953125 0 L 0.328125 0 L 0.328125 -2.296875 L 0.8125 -2.296875 L 0.890625 -2 L 0.921875 -2 C 0.992188 -2.113281 1.085938 -2.195312 1.203125 -2.25 C 1.328125 -2.3125 1.46875 -2.34375 1.625 -2.34375 C 1.894531 -2.34375 2.097656 -2.269531 2.234375 -2.125 C 2.378906 -1.976562 2.453125 -1.769531 2.453125 -1.5 Z M 2.453125 0 "/></g></g></g><g fill="#ffffff" fill-opacity="1"><g transform="translate(36.450788, 41.066903)"><g><path d="M 2.328125 -2.296875 L 2.328125 -1.96875 L 1.96875 -1.890625 C 2.03125 -1.785156 2.0625 -1.671875 2.0625 -1.546875 C 2.0625 -1.296875 1.972656 -1.097656 1.796875 -0.953125 C 1.628906 -0.816406 1.394531 -0.75 1.09375 -0.75 L 0.984375 -0.765625 L 0.890625 -0.78125 C 0.828125 -0.726562 0.796875 -0.671875 0.796875 -0.609375 C 0.796875 -0.515625 0.910156 -0.46875 1.140625 -0.46875 L 1.53125 -0.46875 C 1.78125 -0.46875 1.96875 -0.414062 2.09375 -0.3125 C 2.226562 -0.207031 2.296875 -0.046875 2.296875 0.171875 C 2.296875 0.429688 2.179688 0.632812 1.953125 0.78125 C 1.734375 0.9375 1.414062 1.015625 1 1.015625 C 0.675781 1.015625 0.429688 0.957031 0.265625 0.84375 C 0.0976562 0.726562 0.015625 0.570312 0.015625 0.375 C 0.015625 0.238281 0.0546875 0.125 0.140625 0.03125 C 0.222656 -0.0625 0.347656 -0.128906 0.515625 -0.171875 C 0.453125 -0.203125 0.394531 -0.25 0.34375 -0.3125 C 0.300781 -0.375 0.28125 -0.4375 0.28125 -0.5 C 0.28125 -0.59375 0.304688 -0.664062 0.359375 -0.71875 C 0.410156 -0.78125 0.484375 -0.835938 0.578125 -0.890625 C 0.453125 -0.941406 0.351562 -1.023438 0.28125 -1.140625 C 0.21875 -1.253906 0.1875 -1.390625 0.1875 -1.546875 C 0.1875 -1.796875 0.265625 -1.988281 0.421875 -2.125 C 0.585938 -2.269531 0.820312 -2.34375 1.125 -2.34375 C 1.1875 -2.34375 1.257812 -2.332031 1.34375 -2.3125 C 1.4375 -2.300781 1.5 -2.296875 1.53125 -2.296875 Z M 0.546875 0.328125 C 0.546875 0.410156 0.585938 0.472656 0.671875 0.515625 C 0.753906 0.566406 0.875 0.59375 1.03125 0.59375 C 1.25 0.59375 1.421875 0.5625 1.546875 0.5 C 1.679688 0.445312 1.75 0.363281 1.75 0.25 C 1.75 0.164062 1.707031 0.109375 1.625 0.078125 C 1.550781 0.046875 1.4375 0.03125 1.28125 0.03125 L 0.953125 0.03125 C 0.835938 0.03125 0.738281 0.0546875 0.65625 0.109375 C 0.582031 0.160156 0.546875 0.234375 0.546875 0.328125 Z M 0.78125 -1.546875 C 0.78125 -1.421875 0.804688 -1.320312 0.859375 -1.25 C 0.921875 -1.175781 1.007812 -1.140625 1.125 -1.140625 C 1.238281 -1.140625 1.320312 -1.175781 1.375 -1.25 C 1.4375 -1.320312 1.46875 -1.421875 1.46875 -1.546875 C 1.46875 -1.816406 1.351562 -1.953125 1.125 -1.953125 C 0.894531 -1.953125 0.78125 -1.816406 0.78125 -1.546875 Z M 0.78125 -1.546875 "/></g></g></g><g fill="#ffffff" fill-opacity="1"><g transform="translate(38.828882, 41.066903)"><g><path d="M 1.78125 0 L 1.671875 -0.3125 L 1.640625 -0.3125 C 1.535156 -0.175781 1.425781 -0.0820312 1.3125 -0.03125 C 1.207031 0.0195312 1.066406 0.046875 0.890625 0.046875 C 0.671875 0.046875 0.492188 -0.015625 0.359375 -0.140625 C 0.234375 -0.273438 0.171875 -0.457031 0.171875 -0.6875 C 0.171875 -0.925781 0.253906 -1.101562 0.421875 -1.21875 C 0.597656 -1.332031 0.859375 -1.398438 1.203125 -1.421875 L 1.59375 -1.421875 L 1.59375 -1.53125 C 1.59375 -1.757812 1.476562 -1.875 1.25 -1.875 C 1.0625 -1.875 0.84375 -1.820312 0.59375 -1.71875 L 0.390625 -2.140625 C 0.648438 -2.273438 0.941406 -2.34375 1.265625 -2.34375 C 1.578125 -2.34375 1.8125 -2.273438 1.96875 -2.140625 C 2.132812 -2.003906 2.21875 -1.800781 2.21875 -1.53125 L 2.21875 0 Z M 1.59375 -1.0625 L 1.359375 -1.0625 C 1.171875 -1.050781 1.03125 -1.015625 0.9375 -0.953125 C 0.851562 -0.890625 0.8125 -0.800781 0.8125 -0.6875 C 0.8125 -0.507812 0.914062 -0.421875 1.125 -0.421875 C 1.269531 -0.421875 1.382812 -0.460938 1.46875 -0.546875 C 1.550781 -0.628906 1.59375 -0.738281 1.59375 -0.875 Z M 1.59375 -1.0625 "/></g></g></g><g fill="#ffffff" fill-opacity="1"><g transform="translate(41.371408, 41.066903)"><g><path d="M 2.453125 0 L 1.828125 0 L 1.828125 -1.34375 C 1.828125 -1.507812 1.796875 -1.632812 1.734375 -1.71875 C 1.671875 -1.800781 1.578125 -1.84375 1.453125 -1.84375 C 1.273438 -1.84375 1.144531 -1.78125 1.0625 -1.65625 C 0.988281 -1.539062 0.953125 -1.347656 0.953125 -1.078125 L 0.953125 0 L 0.328125 0 L 0.328125 -2.296875 L 0.8125 -2.296875 L 0.890625 -2 L 0.921875 -2 C 0.992188 -2.113281 1.085938 -2.195312 1.203125 -2.25 C 1.328125 -2.3125 1.46875 -2.34375 1.625 -2.34375 C 1.894531 -2.34375 2.097656 -2.269531 2.234375 -2.125 C 2.378906 -1.976562 2.453125 -1.769531 2.453125 -1.5 Z M 2.453125 0 "/></g></g></g></svg>